<svg
	width="100"
	height="34"
	viewBox="0 0 100 34"
	fill="none"
	xmlns="http://www.w3.org/2000/svg"
>
	<g clip-path="url(#clip0_2369_475)">
		<mask
			id="mask0_2369_475"
			style="mask-type:luminance"
			maskUnits="userSpaceOnUse"
			x="1"
			y="-6"
			width="98"
			height="46"
		>
			<path
				d="M1.4707 -5.88234H98.3128V39.2157H1.4707V-5.88234Z"
				fill="white"
			/>
		</mask>
		<g mask="url(#mask0_2369_475)">
			<path
				d="M7.20724 17.6508L5.95215 23.9421H7.14027L7.69269 21.2184H8.46143C10.3643 21.2184 11.0471 20.0889 11.0471 19.0444C11.0471 17.9476 10.0146 17.6508 9.08959 17.6508H7.20724ZM8.87869 18.3161C9.59313 18.3161 9.79437 18.654 9.79437 19.0516C9.79437 19.5944 9.62391 20.56 8.40683 20.56H7.82604L8.26231 18.3161H8.87869Z"
				fill="#939598"
			/>
			<path
				d="M73.4832 17.6508L72.2441 23.9421H73.4172L73.9627 21.2184H74.7214C76.6002 21.2184 77.2742 20.0889 77.2742 19.0444C77.2742 17.9476 76.2547 17.6508 75.3415 17.6508H73.4832ZM75.1336 18.3161C75.839 18.3161 76.0375 18.654 76.0375 19.0516C76.0375 19.5944 75.8691 20.56 74.6677 20.56H74.0942L74.5247 18.3161H75.1336Z"
				fill="#939598"
			/>
			<path
				d="M13.4571 17.034L12.7931 20.4088C13.211 19.5762 13.8798 19.1391 14.4395 19.1391C15.5914 19.1391 15.3144 20.3785 15.2586 20.6729L14.6106 23.9421H13.5356L14.1815 20.6729C14.2398 20.4088 14.3315 19.8819 13.9453 19.8819C13.4484 19.8819 12.9427 20.8766 12.8625 21.0739C12.4301 22.0759 12.2503 23.0285 12.0569 23.9421H11.0049L12.3822 17.034H13.4571Z"
				fill="#939598"
			/>
			<path
				d="M20.2626 19.4527C19.8188 19.2541 19.3888 19.1391 18.9112 19.1391C16.9336 19.1391 15.8857 21.3134 15.8857 22.7037C15.8857 23.6004 16.325 24.0393 16.9248 24.0393C17.8746 24.0393 18.4379 22.9799 18.6445 22.5899L18.3673 23.9422H19.3626L20.2626 19.4527ZM19.1378 19.7978C18.8533 21.1104 18.5151 21.9609 18.2737 22.446C18.1678 22.6673 17.817 23.2765 17.3897 23.2765C16.987 23.2765 16.987 22.8215 16.987 22.7037C16.987 21.6546 17.696 19.731 18.751 19.731C18.9441 19.731 19.0778 19.7687 19.1378 19.7978Z"
				fill="#939598"
			/>
			<path
				d="M22.7652 19.2346L22.4227 20.959C22.6997 20.2672 23.2811 19.1389 24.0115 19.1389L24.2227 19.1684L24.0332 20.1212C23.9385 20.1103 23.9092 20.0891 23.7753 20.0891C22.9474 20.0891 22.1494 22.2749 21.8727 23.942H20.8252L21.7554 19.2346H22.7652Z"
				fill="#939598"
			/>
			<path
				d="M26.1647 19.2346L25.9161 20.5022C26.3556 19.6938 26.9081 19.1389 27.5905 19.1389C28.2473 19.1389 28.5901 19.6516 28.3976 20.4718C28.6205 20.0815 29.1814 19.1389 30.1146 19.1389C31.1603 19.1389 31.0242 20.1212 30.9032 20.7505L30.2645 23.942H29.189L29.8376 20.6789C29.9529 20.1212 29.9109 19.9036 29.6086 19.9036C29.1024 19.9036 28.6205 20.9105 28.5499 21.0741C28.2205 21.8739 28.0105 22.7424 27.7619 23.942H26.7165L27.335 20.8221C27.4092 20.4354 27.5347 19.9036 27.1274 19.9036C26.8191 19.9036 26.5333 20.2159 26.2476 20.6931C25.7806 21.4641 25.5235 22.7894 25.2867 23.942H24.2422L25.1745 19.2346H26.1647Z"
				fill="#939598"
			/>
			<path
				d="M35.9865 19.4527C35.5352 19.2541 35.1107 19.1391 34.6349 19.1391C32.6539 19.1391 31.6094 21.3134 31.6094 22.7037C31.6094 23.6004 32.0462 24.0393 32.6466 24.0393C33.594 24.0393 34.1567 22.9799 34.3652 22.5899L34.0912 23.9422H35.0838L35.9865 19.4527ZM34.8621 19.7978C34.5766 21.1104 34.2363 21.9609 33.9971 22.446C33.8885 22.6673 33.5394 23.2765 33.1089 23.2765C32.7079 23.2765 32.7079 22.8215 32.7079 22.7037C32.7079 21.6546 33.4148 19.731 34.4729 19.731C34.6638 19.731 34.7948 19.7687 34.8621 19.7978Z"
				fill="#939598"
			/>
			<path
				d="M40.0886 19.9073C39.9522 19.8548 39.7546 19.7685 39.5057 19.7685C38.4386 19.7685 37.6318 21.4447 37.6318 22.5703C37.6318 23.1777 37.9444 23.3723 38.2406 23.3723C38.6326 23.3723 39.1992 22.998 39.3425 22.9082L39.652 23.4345C39.1654 23.7168 38.5843 24.0392 37.8798 24.0392C37.0236 24.0392 36.4766 23.4476 36.4766 22.5145C36.4766 21.1621 37.5844 19.139 39.391 19.139C39.7241 19.139 40.0159 19.2058 40.3161 19.3387L40.0886 19.9073Z"
				fill="#939598"
			/>
			<path
				d="M86.1514 18.6441C85.9755 18.5758 85.7209 18.4632 85.3999 18.4632C84.0244 18.4632 82.9844 20.6514 82.9844 22.1212C82.9844 22.9144 83.3875 23.1685 83.7692 23.1685C84.2745 23.1685 85.005 22.6798 85.1896 22.5623L85.5888 23.2498C84.9612 23.6183 84.2121 24.0391 83.3042 24.0391C82.2003 24.0391 81.7852 23.0726 81.7852 21.8544C81.7852 20.0887 82.9235 17.6408 85.2521 17.6408C85.6817 17.6408 86.0576 17.7283 86.4444 17.9019L86.1514 18.6441Z"
				fill="#939598"
			/>
			<path
				d="M43.1801 22.8539C42.5179 23.2765 42.1788 23.3506 41.9326 23.3506C41.2734 23.3506 41.2381 22.5789 41.4951 21.6655C42.6298 21.5818 44.139 21.2363 44.139 20.0066C44.139 19.6054 43.9045 19.1391 43.153 19.1391C41.6016 19.1391 40.2207 21.056 40.2207 22.5413C40.2207 23.5536 40.8576 24.0393 41.6396 24.0393C42.2569 24.0393 42.7997 23.8004 43.4936 23.3797L43.1801 22.8539ZM41.6396 21.1711C42.0288 20.1751 42.5885 19.711 42.9397 19.711C43.124 19.711 43.2655 19.8191 43.2655 20.0743C43.2655 20.822 42.3888 21.1104 41.6396 21.1711Z"
				fill="#939598"
			/>
			<path
				d="M46.3384 19.2346L45.7103 22.4286C45.6183 22.9082 45.6095 23.2767 45.9492 23.2767C46.266 23.2767 46.5955 22.8866 46.8529 22.4349C47.3018 21.6654 47.5655 20.4248 47.8156 19.2346H48.8619L47.9299 23.942H46.9397L47.1968 22.6079C46.804 23.239 46.3152 24.0392 45.4427 24.0392C44.9597 24.0392 44.3695 23.7602 44.5973 22.6079L45.2653 19.2346H46.3384Z"
				fill="#939598"
			/>
			<path
				d="M51.7345 17.9831L51.488 19.2346H52.3068L52.1946 19.8244H51.3637L50.7929 22.7036C50.677 23.3058 50.7748 23.3505 50.9651 23.3505C51.1347 23.3505 51.3142 23.284 51.5173 23.1887L51.7345 23.7517C51.5553 23.8197 51.0795 24.021 50.5355 24.021C49.9644 24.021 49.5097 23.7168 49.6799 22.8757L50.2896 19.8244H49.6162L49.7254 19.2346H50.4673L50.7174 17.9831H51.7345Z"
				fill="#939598"
			/>
			<path
				d="M54.4097 19.2346L53.4775 23.942H52.4004L53.3363 19.2346H54.4097ZM54.9039 17.708L54.0534 18.3002L53.5058 17.4294L54.3557 16.8487L54.9039 17.708Z"
				fill="#939598"
			/>
			<path
				d="M58.4729 19.9073C58.3374 19.8548 58.1407 19.7685 57.8921 19.7685C56.8295 19.7685 56.0155 21.4447 56.0155 22.5703C56.0155 23.1777 56.3305 23.3723 56.6291 23.3723C57.0162 23.3723 57.5868 22.998 57.7325 22.9082L58.0372 23.4345C57.5503 23.7168 56.9686 24.0392 56.2647 24.0392C55.4121 24.0392 54.8672 23.4476 54.8672 22.5145C54.8672 21.1621 55.9675 19.139 57.7774 19.139C58.1126 19.139 58.3968 19.2058 58.7016 19.3387L58.4729 19.9073Z"
				fill="#939598"
			/>
			<path
				d="M62.9843 19.4527C62.5356 19.2541 62.1084 19.1391 61.6326 19.1391C59.654 19.1391 58.6074 21.3134 58.6074 22.7037C58.6074 23.6004 59.0419 24.0393 59.6453 24.0393C60.5954 24.0393 61.1565 22.9799 61.368 22.5899L61.0914 23.9422H62.0816L62.9843 19.4527ZM61.8607 19.7978C61.5726 21.1104 61.2311 21.9609 60.9969 22.446C60.8919 22.6673 60.5371 23.2765 60.1105 23.2765C59.708 23.2765 59.708 22.8215 59.708 22.7037C59.708 21.6546 60.4174 19.731 61.4694 19.731C61.6607 19.731 61.7971 19.7687 61.8607 19.7978Z"
				fill="#939598"
			/>
			<path
				d="M65.9945 17.034L64.6217 23.9421H63.5449L64.915 17.034H65.9945Z"
				fill="#939598"
			/>
			<path
				d="M68.8652 19.9303C68.6953 19.8608 68.4346 19.7685 68.1197 19.7685C67.6744 19.7685 67.401 20.0065 67.401 20.3131C67.401 20.5132 67.4936 20.6658 67.8551 21.0435L68.0074 21.2049C68.387 21.6132 68.7424 21.9999 68.7424 22.5609C68.7424 23.2281 68.228 24.0392 67.0012 24.0392C66.3146 24.0392 65.875 23.7715 65.7139 23.6865L65.9948 23.131C66.174 23.239 66.5155 23.4102 66.9575 23.4102C67.4463 23.4102 67.7208 23.1167 67.7208 22.7521C67.7208 22.4531 67.5416 22.264 67.1889 21.8812L67.0266 21.7164C66.4959 21.1406 66.3788 20.8349 66.3788 20.4931C66.3788 19.7506 67.093 19.139 68.0768 19.139C68.1891 19.139 68.6066 19.139 69.1062 19.3591L68.8652 19.9303Z"
				fill="#939598"
			/>
			<path
				d="M79.6951 17.6508L78.5914 23.2176H80.6997L80.5588 23.9421H77.2793L78.5124 17.6508H79.6951Z"
				fill="#939598"
			/>
			<path
				d="M8.04192 12.3598H10.5295C11.5139 12.3598 12.0812 12.0013 12.0812 11.1735C12.0812 10.4629 11.351 10.1879 10.6224 10.1879H8.04192V12.3598ZM8.04192 8.81855H10.4221C11.2159 8.81855 11.8516 8.55841 11.8516 7.91124C11.8516 7.24434 11.2865 7.03823 10.3669 7.03823H8.04192V8.81855ZM6.09863 5.63462H10.814C13.1896 5.63462 13.7979 6.87856 13.7979 7.71758C13.7979 8.88867 13.0134 9.21741 12.6097 9.38315C13.7979 9.75834 14.1089 10.5497 14.1089 11.3544C14.1089 12.0013 13.784 12.6111 13.2711 13.03C12.7159 13.4847 12.1892 13.7649 10.2042 13.7649H6.09863V5.63462Z"
				fill="#007DC5"
			/>
			<path
				d="M27.846 7.07223H22.6995V8.78303H27.4251V10.2255H22.6995V12.3285H28.0786V13.7649H20.7109V5.63462H27.846V7.07223Z"
				fill="#007DC5"
			/>
			<path
				d="M37.1782 10.6845H39.6516L38.4499 7.47109H38.4224L37.1782 10.6845ZM35.9647 13.7649H33.8311L37.2892 5.63462H39.625L43.0418 13.7649H40.8394L40.2188 12.0902H36.6375L35.9647 13.7649Z"
				fill="#007DC5"
			/>
			<path
				d="M54.8434 8.29772C54.6832 7.80901 54.3767 6.89229 52.7022 6.89229C51.7277 6.89229 50.2952 7.43352 50.2952 9.73716C50.2952 11.1997 50.9849 12.5086 52.7022 12.5086C53.8215 12.5086 54.6048 11.9798 54.8434 10.9811H56.8724C56.4684 12.749 55.0905 13.9823 52.6563 13.9823C50.078 13.9823 48.2285 12.521 48.2285 9.71227C48.2285 6.87225 50.1863 5.42038 52.6835 5.42038C55.5895 5.42038 56.7641 7.09567 56.8724 8.29772H54.8434Z"
				fill="#007DC5"
			/>
			<path
				d="M67.5074 12.5459C68.5971 12.5459 70.137 11.9795 70.137 9.70164C70.137 7.42593 68.5971 6.85859 67.5074 6.85859C66.408 6.85859 64.8674 7.42593 64.8674 9.70164C64.8674 11.9795 66.408 12.5459 67.5074 12.5459ZM67.5074 5.42037C68.7863 5.42037 72.1639 5.88238 72.1639 9.70164C72.1639 13.5148 68.7863 13.9823 67.5074 13.9823C66.223 13.9823 62.8418 13.5148 62.8418 9.70164C62.8418 5.88238 66.223 5.42037 67.5074 5.42037Z"
				fill="#007DC5"
			/>
			<path
				d="M84.563 5.63462H86.4568V13.7649H84.4291L80.4719 7.97043H80.4447V13.7649H78.5527V5.63462H80.6867L84.5371 11.2989H84.563V5.63462Z"
				fill="#007DC5"
			/>
			<path
				d="M6.25781 15.6495H86.4509V15.145H6.25781V15.6495Z"
				fill="#007DC5"
			/>
			<path
				d="M35.6359 31.2132C35.4772 31.2666 35.292 31.3732 35.1134 31.3732C35.021 31.3732 34.9082 31.3529 34.9082 31.2333C34.9082 31.0803 35.2193 30.7075 35.3185 30.5742C35.378 30.4947 35.4244 30.4149 35.5237 30.3882C35.8013 30.3214 36.099 30.315 36.3766 30.2619L38.3015 27.9592C38.5395 27.6732 39.5119 26.6815 39.8625 26.6815C40.0873 26.6815 40.1932 26.9213 40.1932 27.1141C40.1932 27.54 39.6507 28.3186 39.4392 28.698C39.492 28.7047 39.5581 28.7177 39.5581 28.7909C39.5581 28.9108 39.2802 29.1105 39.1879 29.177C39.0754 29.2568 38.7381 29.5231 38.6125 29.5231C38.4934 29.5231 38.4602 29.4232 38.4602 29.3233C38.4602 28.8243 39.0289 28.0991 39.3463 27.7397C39.3994 27.6796 39.406 27.6131 39.3599 27.6131C39.2736 27.6131 38.9894 27.8793 38.255 28.7244L36.9323 30.2482C38.0303 30.4613 38.599 30.5742 39.5913 30.8141L39.2407 31.1668C38.8174 31.5927 38.8437 31.606 37.5472 31.3331C36.9655 31.2065 36.3766 31.1267 35.7813 31.147L35.6359 31.2132Z"
				fill="#9D9FA2"
			/>
			<path
				d="M42.4635 28.6248C42.4635 28.3519 42.7809 28.1121 43.0389 28.1121C43.158 28.1121 43.257 28.1989 43.257 28.3185C43.257 28.5847 43.0123 28.911 42.7278 28.911C42.5694 28.911 42.4635 28.7844 42.4635 28.6248ZM43.0986 30.4746C42.8008 30.8407 42.2188 31.4396 41.7162 31.4396C41.3261 31.4396 41.1475 30.987 41.1475 30.6476C41.1475 29.8359 41.9741 29.0437 42.3709 29.0437C42.4831 29.0437 42.662 29.0837 42.662 29.2303C42.662 29.563 42.007 30.1553 41.7291 30.348C41.6764 30.6212 41.7756 30.7675 42.0797 30.7675C42.4303 30.7675 42.7746 30.4148 43.0389 30.2217L43.0986 30.4746Z"
				fill="#9D9FA2"
			/>
			<path
				d="M46.1614 30.3749L46.1481 30.3615C45.91 30.6277 45.2155 31.2333 44.8517 31.2333C44.4812 31.2333 44.3557 30.7473 44.3557 30.4547C44.3557 29.5829 45.7975 28.8778 46.3068 28.8307C46.3994 28.8243 46.6574 28.8511 46.6574 28.9974C46.6574 29.117 46.5252 29.2102 46.4392 29.2703L45.6853 29.6828C45.2686 29.9089 44.7789 30.0953 44.8387 30.5813C44.8453 30.6344 44.8848 30.6475 44.9446 30.6475C45.1295 30.6675 45.5329 30.5081 45.7842 30.2352L46.492 29.45C46.5581 29.3768 46.6378 29.2636 46.7437 29.2636C46.8755 29.2636 46.995 29.4897 46.995 29.603C46.995 29.7028 46.902 29.8558 46.8559 29.9423L46.3599 30.8739L46.3732 30.8873L47.3784 30.1618L47.4116 30.4414L46.0159 31.4929C45.3214 32.6041 44.7394 33.03 44.4812 33.03C44.3888 33.03 44.3291 32.9569 44.3291 32.8704C44.3291 32.3914 45.3347 31.5527 45.6985 31.2864L46.1614 30.3749Z"
				fill="#9D9FA2"
			/>
			<path
				d="M49.067 30.5012C49.391 30.2417 50.5949 29.1771 50.9584 29.1771C51.1174 29.1771 51.2761 29.3434 51.2761 29.4964C51.2761 29.623 51.0115 29.9156 50.9322 30.0088C50.5221 30.5082 50.5421 30.5279 50.5421 30.5944C50.5421 30.6809 50.6078 30.7343 50.6875 30.7343C50.9056 30.7343 51.3886 30.3749 51.5802 30.2483L51.6134 30.5212C51.309 30.7543 50.5089 31.4064 50.145 31.4064C49.9468 31.4064 49.8409 31.2333 49.8409 31.0536C49.8409 30.6344 50.2974 30.1287 50.5351 29.8158L50.5221 29.8027C49.391 30.5813 49.0604 31.2865 48.8489 31.2865C48.6172 31.2865 48.584 30.7674 48.584 30.6144C48.584 30.1554 48.7563 29.8358 48.9877 29.4567C49.7682 28.1587 51.0842 26.9943 51.309 26.9943C51.4149 26.9943 51.5935 27.041 51.5935 27.174C51.5935 27.6263 49.4903 29.8224 49.067 30.2417V30.5012Z"
				fill="#9D9FA2"
			/>
			<path
				d="M55.1921 28.5647C54.8814 29.197 54.8283 29.4432 54.1009 29.3964C53.8761 29.6894 53.499 30.2351 53.499 30.6343C53.499 30.7806 53.5451 30.8671 53.6975 30.8671C53.909 30.8671 54.147 30.6674 54.8349 30.175L54.8681 30.4677C54.478 30.8274 53.7636 31.5392 53.2015 31.5392C52.9432 31.5392 52.7845 31.3598 52.7845 31.0933C52.7845 30.8738 52.8705 30.6209 52.9568 30.4279L52.9432 30.4145L52.6059 30.6874L52.5332 30.4346C52.9302 30.1286 53.2938 29.7889 53.5385 29.3697C53.1351 29.3697 53.2606 29.3433 52.91 29.3964L52.983 29.2768C53.3403 28.691 53.3931 28.5844 54.1009 28.558C54.2994 28.2851 54.4448 27.9725 54.8283 27.9725C54.9143 27.9725 55.0401 27.9925 55.0401 28.0991C55.0401 28.2187 54.8482 28.4381 54.7821 28.5313L55.1921 28.5647Z"
				fill="#9D9FA2"
			/>
			<path
				d="M60.5188 31.16C60.307 31.1731 60.2014 31.1667 60.0427 31.1066C59.8707 31.3995 59.7648 31.639 59.7382 31.8588C59.712 32.0719 59.7714 32.2579 59.8707 32.451C60.2807 32.1781 60.5782 31.659 60.5188 31.16ZM60.5453 30.1886C60.7372 30.3016 60.8033 30.521 60.8892 30.7141L61.782 30.1553L61.8547 30.4014C61.5904 30.6409 61.3258 30.8738 61.0018 31.0334C61.028 31.16 61.0151 31.2796 61.0081 31.3995C60.9553 32.1915 60.0294 32.9236 59.5467 32.9968C59.2422 33.0432 59.1562 32.4246 59.1562 32.2045C59.1562 31.7723 59.4408 31.2465 59.6194 30.8674C59.5135 30.7542 59.4275 30.6543 59.4275 30.4879C59.4275 30.2214 59.6061 30.1483 59.798 30.042C60.1881 29.8289 60.3999 29.5163 60.6047 29.1372C60.7767 28.8108 61.6299 27.2269 61.9675 27.2269C62.113 27.2269 62.1259 27.4133 62.1259 27.5198C62.1259 27.7794 61.9274 28.2453 61.782 28.4517L60.5453 30.1886Z"
				fill="#9D9FA2"
			/>
			<path
				d="M63.7806 30.0287C63.6352 30.175 63.5097 30.4346 63.5097 30.641C63.5097 30.834 63.6352 30.8938 63.8006 30.8938C64.0187 30.8938 64.1578 30.7676 64.3098 30.6276C64.2637 30.5211 64.2305 30.4346 64.2305 30.3213C64.2305 29.9756 64.5415 29.5564 64.515 29.5427C64.2902 29.676 63.9792 29.836 63.7806 30.0287ZM65.7979 30.3417C65.5004 30.7208 65.2095 30.8805 64.7265 30.8805C64.4486 31.1667 64.1246 31.3795 63.7079 31.3795C63.3643 31.3795 63.0463 31.0335 63.02 30.4279C63.0068 29.9289 63.2515 29.5962 63.6219 29.3102C63.9792 29.0173 64.4553 28.8376 64.8589 28.8176C65.0044 28.8109 65.2225 28.8777 65.2225 29.0574C65.2225 29.1569 65.1431 29.197 65.0704 29.2368C65.269 29.2899 65.3088 29.4298 65.3088 29.6296C65.3088 29.9222 65.1763 30.1553 65.0505 30.4148C65.3417 30.468 65.5269 30.2151 65.7321 30.0621L65.7979 30.3417Z"
				fill="#9D9FA2"
			/>
			<path
				d="M67.5056 29.8957C67.2742 30.2617 66.9963 30.4345 66.7121 30.721L66.6855 30.4281C66.8575 30.2881 66.9963 30.1221 67.1218 29.9424C66.983 29.929 66.9435 29.8759 66.9435 29.736C66.9435 29.2567 67.6181 28.7777 67.7768 28.7777C67.8429 28.7777 67.8957 28.8308 67.8957 28.8909C67.8957 28.9574 67.8761 29.0175 67.8495 29.077C68.471 28.9908 68.8352 28.9109 68.9013 28.9908C69.0005 29.1171 69.0467 29.2236 69.06 29.3435C69.06 29.5499 68.9345 29.6495 68.7821 29.7761C68.5905 29.9424 68.2665 30.2684 68.2665 30.5343C68.2665 30.6409 68.3721 30.721 68.471 30.721C68.7559 30.721 69.1722 30.2881 69.3906 30.1221L69.4371 30.3683C69.1858 30.6545 68.4249 31.3931 68.0477 31.3931C67.7702 31.3931 67.5982 31.1335 67.5982 30.8807C67.5982 30.4281 67.9422 30.0754 68.2067 29.7557L68.1935 29.7427L67.5056 29.8957Z"
				fill="#9D9FA2"
			/>
			<path
				d="M74.975 29.4632C75.4445 29.0239 75.8548 28.3853 75.9737 28.0058C75.6497 28.1655 75.2725 28.7644 74.9618 29.4498L74.975 29.4632ZM76.3442 30.355C75.9803 30.7341 75.3588 31.4065 74.7898 31.4065C74.3071 31.4065 74.2012 30.9339 74.2012 30.5414C74.2012 29.8426 74.4987 29.0907 74.9289 28.5583C75.5109 27.8328 76.139 27.2139 76.3508 27.2139C76.4634 27.2139 76.4896 27.3735 76.4833 27.4603C76.4368 28.0923 76.2648 28.6779 74.8296 30.0754C74.7699 30.1887 74.75 30.375 74.7832 30.5344C74.8426 30.6877 74.9355 30.8206 75.1141 30.8206C75.4777 30.8206 75.9873 30.3948 76.2516 30.1553L76.3442 30.355Z"
				fill="#9D9FA2"
			/>
			<path
				d="M78.7789 28.6248C78.7789 28.3519 79.0963 28.1121 79.3543 28.1121C79.4735 28.1121 79.5724 28.1989 79.5724 28.3185C79.5724 28.5847 79.3277 28.911 79.0432 28.911C78.8848 28.911 78.7789 28.7844 78.7789 28.6248ZM79.414 30.4746C79.1162 30.8407 78.5342 31.4396 78.0316 31.4396C77.6415 31.4396 77.4629 30.987 77.4629 30.6476C77.4629 29.8359 78.2896 29.0437 78.6863 29.0437C78.7985 29.0437 78.9774 29.0837 78.9774 29.2303C78.9774 29.563 78.3224 30.1553 78.0446 30.348C77.9921 30.6212 78.091 30.7675 78.3952 30.7675C78.7457 30.7675 79.09 30.4148 79.3543 30.2217L79.414 30.4746Z"
				fill="#9D9FA2"
			/>
			<path
				d="M81.5051 31.16C81.2933 31.1731 81.1874 31.1667 81.0287 31.1066C80.8567 31.3995 80.7508 31.639 80.7243 31.8588C80.698 32.0719 80.7575 32.2579 80.8567 32.451C81.267 32.1781 81.5645 31.659 81.5051 31.16ZM81.5313 30.1886C81.7232 30.3016 81.7896 30.521 81.8753 30.7141L82.7683 30.1553L82.841 30.4014C82.5764 30.6409 82.3118 30.8738 81.9878 31.0334C82.0144 31.16 82.0011 31.2796 81.9944 31.3995C81.9416 32.1915 81.0157 32.9236 80.5327 32.9968C80.2283 33.0432 80.1426 32.4246 80.1426 32.2045C80.1426 31.7723 80.4268 31.2465 80.6054 30.8674C80.4995 30.7542 80.4138 30.6543 80.4138 30.4879C80.4138 30.2214 80.5924 30.1483 80.784 30.042C81.1741 29.8289 81.3859 29.5163 81.5911 29.1372C81.763 28.8108 82.6163 27.2269 82.9536 27.2269C83.099 27.2269 83.1123 27.4133 83.1123 27.5198C83.1123 27.7794 82.9137 28.2453 82.7683 28.4517L81.5313 30.1886Z"
				fill="#9D9FA2"
			/>
			<path
				d="M85.7193 29.2767C85.7193 29.2303 85.6861 29.1902 85.6399 29.2035C85.3093 29.2901 84.9258 29.6094 84.7472 30.0486C85.3292 29.8489 85.7262 29.3899 85.7193 29.2767ZM86.5396 30.3479C86.136 30.8206 85.4082 31.4462 84.7538 31.4462C84.2708 31.4462 84.046 31.0136 84.0328 30.5744C84.0062 29.7026 84.9653 28.8111 85.8252 28.8174C86.0367 28.8174 86.3016 28.8705 86.3016 29.1371C86.3016 29.4631 85.9773 29.9554 84.7074 30.3746L84.6941 30.5209C84.6745 30.7738 84.8926 30.8603 85.1041 30.8603C85.5739 30.8603 86.1293 30.3746 86.4799 30.0954L86.5396 30.3479Z"
				fill="#9D9FA2"
			/>
			<path
				d="M91.5005 1.74656C91.3663 1.67098 91.1506 1.63304 90.8546 1.63304H90.3987V2.73978H90.8808C91.1071 2.73978 91.2764 2.71701 91.3895 2.67148C91.598 2.58831 91.7024 2.42894 91.7024 2.19369C91.7024 1.97149 91.6348 1.82245 91.5005 1.74656ZM90.9258 1.26513C91.3026 1.26513 91.579 1.30186 91.7549 1.37502C92.069 1.50645 92.2258 1.76447 92.2258 2.14846C92.2258 2.42135 92.1266 2.6223 91.9284 2.75101C91.8228 2.81931 91.6758 2.86879 91.4873 2.89884C91.7259 2.93678 91.9006 3.03665 92.0113 3.19844C92.1218 3.36023 92.177 3.51838 92.177 3.67259V3.896C92.177 3.96673 92.1794 4.04261 92.1845 4.12366C92.1896 4.20441 92.1984 4.25753 92.2111 4.28272L92.2298 4.32067H91.7286C91.7259 4.31065 91.7235 4.30033 91.7211 4.29031C91.7184 4.28029 91.716 4.26876 91.7136 4.25631L91.7024 4.15766V3.91482C91.7024 3.56118 91.6067 3.32745 91.4158 3.21362C91.3026 3.14805 91.1044 3.11527 90.8205 3.11527H90.3987V4.32067H89.8635V1.26513H90.9258ZM89.2984 1.10607C88.8362 1.57354 88.6051 2.13845 88.6051 2.80049C88.6051 3.46769 88.835 4.03624 89.2945 4.50644C89.7567 4.97633 90.3182 5.21128 90.9786 5.21128C91.6393 5.21128 92.2008 4.97633 92.663 4.50644C93.1249 4.03624 93.3563 3.46769 93.3563 2.80049C93.3563 2.13845 93.1249 1.57354 92.663 1.10607C92.1984 0.635874 91.6369 0.400927 90.9786 0.400927C90.3233 0.400927 89.763 0.635874 89.2984 1.10607ZM92.9382 4.77569C92.3978 5.32147 91.7449 5.59436 90.9786 5.59436C90.2126 5.59436 89.5609 5.32147 89.0232 4.77569C88.488 4.23233 88.2207 3.57393 88.2207 2.80049C88.2207 2.03463 88.4907 1.38018 89.0308 0.836824C89.5684 0.296202 90.2177 0.025435 90.9786 0.025435C91.7449 0.025435 92.3978 0.296202 92.9382 0.836824C93.4782 1.37745 93.7483 2.0322 93.7483 2.80049C93.7483 3.5715 93.4782 4.2296 92.9382 4.77569Z"
				fill="#939598"
			/>
		</g>
	</g>
	<defs>
		<clipPath id="clip0_2369_475">
			<rect width="100" height="33.3333" fill="white" />
		</clipPath>
	</defs>
</svg>
