<svg width="64" height="64" viewBox="0 0 64 64" fill="none" xmlns="http://www.w3.org/2000/svg">
<path d="M28.6247 14.0714C28.5262 14.0714 28.426 14.0556 28.328 14.0213C27.8587 13.857 27.6113 13.3437 27.7752 12.8744C28.0042 12.2187 28.4106 11.6395 28.9507 11.1992C29.6174 10.6552 30.4607 10.3555 31.3246 10.3555C31.8216 10.3555 32.2246 10.758 32.2246 11.2555C32.2246 11.7529 31.8216 12.1554 31.3246 12.1554C30.8676 12.1554 30.44 12.3075 30.0884 12.594C29.8059 12.8243 29.5936 13.1266 29.4741 13.4685C29.3449 13.8394 28.9969 14.0714 28.6247 14.0714Z" fill="#A8CAE5"/>
<path d="M40.0971 23.9443C39.6001 23.9443 39.1523 23.4969 39.1523 22.9995C39.1523 22.502 39.6001 22.0547 40.0971 22.0547C40.5942 22.0547 41.042 22.502 41.042 22.9995C41.042 23.4969 40.5942 23.9443 40.0971 23.9443Z" fill="#A8CAE5"/>
<path d="M40.0971 27.5459C39.6001 27.5459 39.1523 27.0985 39.1523 26.6011C39.1523 26.1036 39.6001 25.6562 40.0971 25.6562C40.5942 25.6562 41.042 26.1036 41.042 26.6011C41.042 27.0985 40.5942 27.5459 40.0971 27.5459Z" fill="#A8CAE5"/>
<path d="M13.0992 33.8002C12.6022 33.8002 12.1992 33.3977 12.1992 32.9002V28.4003C12.1992 25.9192 14.218 23.9004 16.6991 23.9004H23.899C24.396 23.9004 24.799 24.3029 24.799 24.8004C24.799 25.2978 24.396 25.7004 23.899 25.7004H16.6991C15.2103 25.7004 13.9992 26.9115 13.9992 28.4003V32.9002C13.9992 33.3977 13.5962 33.8002 13.0992 33.8002Z" fill="#005CC2"/>
<path d="M40.0971 31.1455C39.6001 31.1455 39.1523 30.6981 39.1523 30.2007C39.1523 29.7032 39.6001 29.2559 40.0971 29.2559C40.5942 29.2559 41.042 29.7032 41.042 30.2007C41.042 30.6981 40.5942 31.1455 40.0971 31.1455Z" fill="#A8CAE5"/>
<path d="M49.0987 39.2004H43.6988C43.2018 39.2004 42.7988 38.7978 42.7988 38.3004C42.7988 37.8029 43.2018 37.4004 43.6988 37.4004H49.0987C49.5957 37.4004 49.9987 37.8029 49.9987 38.3004C49.9987 38.7978 49.5957 39.2004 49.0987 39.2004Z" fill="#005CC2"/>
<path d="M40.0971 34.7451C39.6001 34.7451 39.1523 34.2977 39.1523 33.8003C39.1523 33.3028 39.6001 32.8555 40.0971 32.8555C40.5942 32.8555 41.042 33.3028 41.042 33.8003C41.042 34.2977 40.5942 34.7451 40.0971 34.7451Z" fill="#A8CAE5"/>
<path d="M13.0992 57.2007C12.6022 57.2007 12.1992 56.7981 12.1992 56.3007V52.7008C12.1992 52.2033 12.6022 51.8008 13.0992 51.8008C13.5962 51.8008 13.9992 52.2033 13.9992 52.7008V56.3007C13.9992 56.7981 13.5962 57.2007 13.0992 57.2007Z" fill="#005CC2"/>
<path d="M40.0971 38.3447C39.6001 38.3447 39.1523 37.8973 39.1523 37.3999C39.1523 36.9024 39.6001 36.4551 40.0971 36.4551C40.5942 36.4551 41.042 36.9024 41.042 37.3999C41.042 37.8973 40.5942 38.3447 40.0971 38.3447Z" fill="#A8CAE5"/>
<path d="M13.1007 53.5996C9.62685 53.5996 6.80078 50.7731 6.80078 47.2997V38.2999C6.80078 34.8265 9.62685 32 13.1007 32C16.5745 32 19.4005 34.8265 19.4005 38.2999V47.2997C19.4005 50.7731 16.5745 53.5996 13.1007 53.5996ZM13.1007 33.8C10.6196 33.8 8.60074 35.8188 8.60074 38.2999V47.2997C8.60074 49.7808 10.6196 51.7996 13.1007 51.7996C15.5818 51.7996 17.6006 49.7808 17.6006 47.2997V38.2999C17.6006 35.8188 15.5818 33.8 13.1007 33.8Z" fill="#005CC2"/>
<path d="M52.7008 57.2007C52.2038 57.2007 51.8008 56.7981 51.8008 56.3007V52.7008C51.8008 52.2033 52.2038 51.8008 52.7008 51.8008C53.1978 51.8008 53.6007 52.2033 53.6007 52.7008V56.3007C53.6007 56.7981 53.1978 57.2007 52.7008 57.2007Z" fill="#005CC2"/>
<path d="M52.6991 53.5991C50.218 53.5991 48.1992 51.5802 48.1992 49.0991V31.0995C48.1992 28.6184 50.218 26.5996 52.6991 26.5996C55.1802 26.5996 57.199 28.6184 57.199 31.0995V49.0991C57.199 51.5802 55.1802 53.5991 52.6991 53.5991ZM52.6991 28.3996C51.2103 28.3996 49.9992 29.6107 49.9992 31.0995V49.0991C49.9992 50.588 51.2103 51.7991 52.6991 51.7991C54.188 51.7991 55.3991 50.588 55.3991 49.0991V31.0995C55.3991 29.6107 54.188 28.3996 52.6991 28.3996Z" fill="#005CC2"/>
<path d="M33.7998 53.5998C27.8449 53.5998 23 48.7554 23 42.8V17.6006C23 11.6452 27.8449 6.80078 33.7998 6.80078C39.7547 6.80078 44.5996 11.6452 44.5996 17.6006V42.8C44.5996 48.7554 39.7547 53.5998 33.7998 53.5998ZM33.7998 8.60074C28.8371 8.60074 24.8 12.6384 24.8 17.6006V42.8C24.8 47.7622 28.8371 51.7999 33.7998 51.7999C38.7624 51.7999 42.7996 47.7622 42.7996 42.8V17.6006C42.7996 12.6384 38.7624 8.60074 33.7998 8.60074Z" fill="#005CC2"/>
<path d="M44.5991 18.4992H22.9996C22.5026 18.4992 22.0996 18.0967 22.0996 17.5992C22.0996 17.1017 22.5026 16.6992 22.9996 16.6992H44.5991C45.0962 16.6992 45.4991 17.1017 45.4991 17.5992C45.4991 18.0967 45.0962 18.4992 44.5991 18.4992Z" fill="#005CC2"/>
<path d="M44.5991 43.7004H22.9996C22.5026 43.7004 22.0996 43.2978 22.0996 42.8004C22.0996 42.3029 22.5026 41.9004 22.9996 41.9004H44.5991C45.0962 41.9004 45.4991 42.3029 45.4991 42.8004C45.4991 43.2978 45.0962 43.7004 44.5991 43.7004Z" fill="#005CC2"/>
<path d="M29.2984 57.1988C28.8014 57.1988 28.3984 56.7963 28.3984 56.2988V51.6187C28.3984 51.1213 28.8014 50.7188 29.2984 50.7188C29.7954 50.7188 30.1984 51.1213 30.1984 51.6187V56.2988C30.1984 56.7963 29.7954 57.1988 29.2984 57.1988Z" fill="#005CC2"/>
<path d="M38.3004 57.1988C37.8034 57.1988 37.4004 56.7963 37.4004 56.2988V51.6187C37.4004 51.1213 37.8034 50.7188 38.3004 50.7188C38.7974 50.7188 39.2004 51.1213 39.2004 51.6187V56.2988C39.2004 56.7963 38.7974 57.1988 38.3004 57.1988Z" fill="#005CC2"/>
<path d="M58.0989 57.1984H5.89998C5.40297 57.1984 5 56.7959 5 56.2984C5 55.801 5.40297 55.3984 5.89998 55.3984H58.0989C58.5959 55.3984 58.9989 55.801 58.9989 56.2984C58.9989 56.7959 58.5959 57.1984 58.0989 57.1984Z" fill="#005CC2"/>
</svg>
