
<svg width="24" height="24" viewBox="0 0 24 24" fill="none" xmlns="http://www.w3.org/2000/svg">
<path d="M20.6177 18C20.5277 18 20.4375 17.9699 20.3647 17.9084L14.1289 12.6384C13.9709 12.5048 13.9561 12.2741 14.0958 12.123C14.2359 11.9722 14.4772 11.9581 14.6353 12.0916L20.8711 17.3615C21.0291 17.4949 21.0439 17.7258 20.9042 17.8768C20.8285 17.9586 20.7232 18 20.6177 18Z" fill="white"/>
<path d="M3.38226 18C3.2764 18 3.1713 17.9584 3.09583 17.8768C2.95615 17.7258 2.97086 17.495 3.12888 17.3615L9.36476 12.0916C9.52316 11.958 9.76449 11.9723 9.90417 12.123C10.0439 12.2742 10.0291 12.5049 9.87112 12.6385L3.63524 17.9084C3.56244 17.9699 3.47225 18 3.38226 18Z" fill="white"/>
<path d="M20.1543 19H3.84571C3.37935 19 3 18.581 3 18.0659V5.93449C3 5.4194 3.37935 5 3.84571 5H20.1543C20.6206 5 21 5.4194 21 5.93449V18.0659C21 18.581 20.6206 19 20.1543 19ZM3.84571 5.79582C3.7778 5.79582 3.72052 5.85928 3.72052 5.93449V18.0659C3.72052 18.1409 3.7778 18.2042 3.84571 18.2042H20.1543C20.2222 18.2042 20.2795 18.1409 20.2795 18.0659V5.93449C20.2795 5.85928 20.2222 5.79582 20.1543 5.79582H3.84571Z" fill="white"/>
<path d="M12.1091 12C12.0365 12 11.9643 11.9809 11.9016 11.9426L3.16368 6.61384C2.99365 6.51013 2.94892 6.30154 3.06345 6.14782C3.17816 5.99427 3.40888 5.95383 3.57873 6.05737L12.1061 11.2579L20.4176 6.05955C20.586 5.95433 20.8174 5.99226 20.934 6.14463C21.0508 6.29701 21.0084 6.5061 20.8399 6.61149L12.3201 11.9404C12.2566 11.98 12.1828 12 12.1091 12Z" fill="white"/>
</svg>
