
<svg width="24" height="24" viewBox="0 0 24 24" fill="none" xmlns="http://www.w3.org/2000/svg">
<path d="M15.8623 21.353H8.15137C6.91068 21.353 5.90137 20.3433 5.90137 19.103V4.8999C5.90137 3.65921 6.91068 2.6499 8.15137 2.6499H15.8623C17.103 2.6499 18.1123 3.65921 18.1123 4.8999V19.103C18.1123 20.3433 17.103 21.353 15.8623 21.353ZM8.15137 3.39971C7.32431 3.39971 6.65137 4.07246 6.65137 4.89971V19.1028C6.65137 19.9297 7.32431 20.6028 8.15137 20.6028H15.8623C16.6894 20.6028 17.3623 19.9297 17.3623 19.1028V4.89971C17.3623 4.07246 16.6894 3.39971 15.8623 3.39971H8.15137Z" fill="white"/>
<path d="M17.7373 6.07373H6.27637C6.06937 6.07373 5.90137 5.90573 5.90137 5.69873C5.90137 5.49173 6.06937 5.32373 6.27637 5.32373H17.7373C17.9443 5.32373 18.1123 5.49173 18.1123 5.69873C18.1123 5.90592 17.9443 6.07373 17.7373 6.07373Z" fill="white"/>
<path d="M17.7375 18.4033H13.0693C12.8623 18.4033 12.6943 18.2353 12.6943 18.0283C12.6943 17.8211 12.8623 17.6533 13.0693 17.6533H17.7373C17.9443 17.6533 18.1123 17.8211 18.1123 18.0283C18.1125 18.2353 17.9445 18.4033 17.7375 18.4033Z" fill="white"/>
<path d="M10.944 18.4033H6.27637C6.06937 18.4033 5.90137 18.2353 5.90137 18.0283C5.90137 17.8211 6.06937 17.6533 6.27637 17.6533H10.944C11.151 17.6533 11.319 17.8211 11.319 18.0283C11.319 18.2353 11.1512 18.4033 10.944 18.4033Z" fill="white"/>
<path d="M12.0071 19.4782C11.2141 19.4782 10.5693 18.833 10.5693 18.0404C10.5693 17.2477 11.2141 16.603 12.0071 16.603C12.7998 16.603 13.4445 17.2477 13.4445 18.0404C13.4445 18.8328 12.7998 19.4782 12.0071 19.4782ZM12.0071 17.353C11.628 17.353 11.3193 17.6615 11.3193 18.0404C11.3193 18.4193 11.628 18.7282 12.0071 18.7282C12.386 18.7282 12.6945 18.4195 12.6945 18.0404C12.6945 17.6613 12.3862 17.353 12.0071 17.353Z" fill="white"/>
</svg>
