<svg width="24" height="24" viewBox="0 0 24 24" fill="none" xmlns="http://www.w3.org/2000/svg">
<path fill-rule="evenodd" clip-rule="evenodd" d="M16.7713 10.5997C16.7713 14.0453 13.9781 16.8386 10.5324 16.8386C7.08679 16.8386 4.29355 14.0453 4.29355 10.5997C4.29355 7.15405 7.08679 4.36082 10.5324 4.36082C13.9781 4.36082 16.7713 7.15405 16.7713 10.5997ZM15.5322 16.3752C14.1923 17.5361 12.4444 18.2386 10.5324 18.2386C6.31359 18.2386 2.89355 14.8185 2.89355 10.5997C2.89355 6.38085 6.31359 2.96082 10.5324 2.96082C14.7513 2.96082 18.1713 6.38085 18.1713 10.5997C18.1713 12.4087 17.5425 14.0708 16.4915 15.3795C16.5248 15.4027 16.5566 15.4293 16.5864 15.4591L20.9508 19.8235C21.2242 20.0968 21.2242 20.54 20.9508 20.8134C20.6774 21.0868 20.2342 21.0868 19.9609 20.8134L15.5965 16.449C15.573 16.4256 15.5516 16.4009 15.5322 16.3752Z" fill="white"/>
</svg>
